<svg id="Layer_1" xmlns="http://www.w3.org/2000/svg" viewBox="0 0 28 28"><style>.st0{fill:#fff}</style><title>user</title><g id="Camada_2"><g id="Camada_1-2"><g id="Icon-User"><path class="st0" d="M14 27.7C6.4 27.7.2 21.6.2 14S6.4.2 14 .2 27.8 6.4 27.8 14 21.6 27.7 14 27.7zm0-25.9C7.2 1.8 1.8 7.2 1.8 14S7.2 26.2 14 26.2 26.2 20.8 26.2 14c0-6.8-5.4-12.2-12.2-12.2z" id="Fill-57"/><path id="Fill-58" class="st0" d="M6 23.9l-1.4-.6c.4-1 1.7-1.5 3.1-2.2s3.1-1.4 3.1-2.3v-1.3C10 17 9.5 16 9.4 15c-.6-.5-1-1.3-1.1-2.1 0-.5.2-.9.4-1.3-.2-.9-.3-1.9-.4-2.9 0-3.2 2.2-5.2 5.6-5.2 1-.1 2.1.3 2.8 1 1.6.3 2.8 2.1 2.8 4.3 0 1-.1 2.1-.4 3.1.2.3.3.7.3 1.1 0 .8-.4 1.6-1 2.1-.1 1-.6 1.9-1.3 2.6V19c0 .8 1.4 1.3 2.8 1.8 1.6.6 3.2 1.2 3.7 2.5l-1.4.5c-.3-.7-1.6-1.2-2.8-1.6-1.8-.7-3.8-1.4-3.8-3.2v-2.1l.4-.2c.6-.5 1-1.2 1-2v-.5l.5-.2c.4-.2.6-.6.5-1 0-.2-.1-.4-.2-.5l-.3-.3.1-.4c.3-1 .4-1.9.4-2.9 0-1.4-.8-2.8-1.7-2.8H16l-.2-.4c-.5-.5-1.2-.7-1.8-.7-2.6 0-4.1 1.4-4.1 3.7.1 1 .2 1.9.4 2.9l.1.4-.3.3c-.2.2-.2.4-.3.6 0 .4.5 1 .7 1.1l.3.2v.4c0 .8.5 1.5 1.1 2l.3.2v2.1c0 1.9-2.1 2.8-4 3.7-.8.4-2 1-2.2 1.3"/></g></g></g></svg>