<svg id="Layer_1" data-name="Layer 1" xmlns="http://www.w3.org/2000/svg" viewBox="0 0 180.49 55.76"><defs><style>.cls-1{fill:#fff}.cls-2{fill:#a70064}</style></defs><title>Artboard 1</title><path class="cls-1" d="M160.48 45.24a5.12 5.12 0 0 0-1 .21 6.15 6.15 0 0 0-2.8 2.21v-2.45h-.42a1.42 1.42 0 0 0-1.42 1.42v8.8h.42a1.42 1.42 0 0 0 1.47-1.43v-2.25a4.46 4.46 0 0 1 2.1-3.6 5.32 5.32 0 0 1 1.13-.56.78.78 0 0 0 .52-.73zM133.13 45.88a4.11 4.11 0 0 0-3.72-.43 6.15 6.15 0 0 0-2.8 2.21l-.15.21a3.55 3.55 0 0 0-1.34-2 4.11 4.11 0 0 0-3.72-.43 6.15 6.15 0 0 0-2.8 2.21v-2.44h-.42a1.42 1.42 0 0 0-1.42 1.42v8.8h.42A1.42 1.42 0 0 0 118.6 54v-3.2a4.46 4.46 0 0 1 3.4-3.61 2.29 2.29 0 0 1 2.08.17 2 2 0 0 1 .72 1.66v6.42h.42a1.42 1.42 0 0 0 1.39-1.44v-3.2a4.46 4.46 0 0 1 3.39-3.61 2.29 2.29 0 0 1 2.08.17 2 2 0 0 1 .72 1.66v6.42h.42a1.42 1.42 0 0 0 1.4-1.44v-5a3.75 3.75 0 0 0-1.49-3.12zM147 45.05a5.33 5.33 0 0 0-3.5 1.31v-6.84h-.42a1.42 1.42 0 0 0-1.42 1.42v14.5h.42a1.42 1.42 0 0 0 1.37-1 5.35 5.35 0 1 0 3.55-9.39zm0 8.88a3.51 3.51 0 0 1-3.5-3.38v-.28a3.52 3.52 0 1 1 3.5 3.66zM108.9 55.73a5.35 5.35 0 1 1 5.35-5.35 5.36 5.36 0 0 1-5.35 5.35zm0-8.88a3.52 3.52 0 1 0 3.52 3.52 3.53 3.53 0 0 0-3.52-3.52zM98.69 53.05a3.52 3.52 0 1 1 0-5.33 1.6 1.6 0 0 0 1.63.28l.71-.27a5.35 5.35 0 1 0 0 5.29l-.71-.27a1.63 1.63 0 0 0-1.63.3z"/><circle class="cls-1" cx="87.52" cy="54.41" r="1.03"/><circle class="cls-1" cx="138.15" cy="54.41" r="1.03"/><path class="cls-1" d="M137.4 14.48a14.2 14.2 0 0 0-5.63-11.88C128-.13 122.88-.73 117.68 1c-4 1.3-8.47 5.16-10.59 8.36V.79h-1.61a5.39 5.39 0 0 0-5.39 5.39v33.31h1.61a5.39 5.39 0 0 0 5.39-5.39V22c.48-6.61 6.11-12.29 12.73-14.44 3.11-1 5.91-.78 7.88.65 1.77 1.29 2.71 3.52 2.71 6.28v25H132a5.39 5.39 0 0 0 5.39-5.39zM93.34 34.1a5.39 5.39 0 0 1-5.39 5.39h-1.61V6.18A5.39 5.39 0 0 1 91.73.79h1.61zM178.64 23a1.81 1.81 0 0 0 1.8-1.7 20.68 20.68 0 0 0-3.72-13.4A18.58 18.58 0 0 0 164.17.19C155-1.14 146.06 4.67 143 14a20.78 20.78 0 0 0 1.82 17 18.89 18.89 0 0 0 12.49 9.08c.19 0 .5.12.93.2a25.19 25.19 0 0 0 18.42-3.88l-.55-.83a6.79 6.79 0 0 0-7.76-2.73 17.26 17.26 0 0 1-9.3.55l-.32-.08a12 12 0 0 1-7.94-5.82 13.65 13.65 0 0 1-1.68-4.49zm-28.91-7.1a18.19 18.19 0 0 1 .87-2.08c2.56-4.65 7.59-7.46 12.58-6.74a11.71 11.71 0 0 1 7.9 4.88 13.18 13.18 0 0 1 1.91 4zM79.11.79A4.44 4.44 0 0 0 75 3.46l-12.39 28.7L49.67 2.59A3 3 0 0 0 46.95.81a3 3 0 0 0-2.73 1.79L31.4 32.16 18.83 3.46A4.49 4.49 0 0 0 14.7.79H8.91l15.79 36a4.49 4.49 0 0 0 4.12 2.67h2.64a4.44 4.44 0 0 0 4.07-2.67l10.12-23.34L55.9 36.81a4.49 4.49 0 0 0 4.1 2.68h2.65a4.44 4.44 0 0 0 4.07-2.67l15.6-36z"/><path class="cls-2" d="M22.05 37.37L6.26 1.35 6 .79H0l15.79 36a4.49 4.49 0 0 0 4.12 2.67H24a4.45 4.45 0 0 1-1.95-2.09z"/></svg>