<?xml version="1.0" encoding="utf-8"?><svg width="120" height="116" viewBox="0 0 120 116" xmlns="http://www.w3.org/2000/svg" xmlns:xlink="http://www.w3.org/1999/xlink"><svg id="amex" data-name="Layer 1" width="40" height="30" viewBox="0 0 50 37" xmlns="http://www.w3.org/2000/svg"><defs><style>.acls-1{fill:#fff}.acls-2{fill:#079cd9}</style></defs><title>Artboard 9 copy 2</title><g id="a_Group_" data-name="Group"><g id="a_Group_2" data-name="Group 2"><path id="a_Path_" data-name="Path" class="acls-1" d="M-.29-6.72h50v37h-50z"/></g><path id="a_Compound_Path_" data-name="Compound Path" class="acls-2" d="M15.86 26.59h-3.47v-1.17h3.09v-1.2h-3.09v-1.07h3.54l1.55 1.72-1.61 1.73m3.43-1.71l2.16-2.33v4.73zm5.41-.25h-1.84v-1.49h1.84c.51 0 .86.21.86.72s-.34.77-.87.77zm6.88-.29a1.34 1.34 0 0 1-.69.12h-1.74v-1.32h1.74a1.53 1.53 0 0 1 .67.1.58.58 0 0 1 .29.53.63.63 0 0 1-.28.57zm-6.87-2.43H20.2l-1.8 1.94-1.73-1.94H11v5.91h5.6l1.8-2 1.74 2h2.76v-2h1.76c1.23 0 2.46-.34 2.46-2s-1.26-1.91-2.38-1.91zm8 .29a3.29 3.29 0 0 0-1.7-.29h-3.25v5.91h1.41v-2.16h1.52c.51 0 .82 0 1 .26a1.74 1.74 0 0 1 .23 1.15v.75h1.42v-1.17a1.69 1.69 0 0 0-.23-1.07 1.56 1.56 0 0 0-.7-.5 1.65 1.65 0 0 0 1-1.57 1.37 1.37 0 0 0-.71-1.31zM39 26.6h-3.3v-1.18h3.23v-1.2h-3.3v-1.07h3.3v-1.24h-4.71v5.91h4.72zm5.39-1.89a2.21 2.21 0 0 0-1.63-.43H42a1.75 1.75 0 0 1-.54-.07.45.45 0 0 1-.31-.44.46.46 0 0 1 .21-.42 1 1 0 0 1 .57-.1h2.59v-1.34h-2.89a1.76 1.76 0 0 0-2 1.76c0 1.88 1.66 1.8 3 1.83a.75.75 0 0 1 .49.14.49.49 0 0 1 .17.39.53.53 0 0 1-.17.39.83.83 0 0 1-.57.14h-2.78v1.27h2.75c1.43 0 2.22-.61 2.22-1.86a1.62 1.62 0 0 0-.42-1.26zm6 1.25c0 1.26-.79 1.86-2.22 1.86h-2.85v-1.25H48a.83.83 0 0 0 .57-.14.53.53 0 0 0 .17-.39.49.49 0 0 0-.17-.39.75.75 0 0 0-.49-.14c-1.32 0-3 0-3-1.83a1.75 1.75 0 0 1 2-1.76H50v1.27h-2.61a1 1 0 0 0-.56.1.46.46 0 0 0-.21.42.45.45 0 0 0 .31.44 1.75 1.75 0 0 0 .54.07h.76a2.2 2.2 0 0 1 1.61.48 1.63 1.63 0 0 1 .43 1.3z"/><g id="a_Group_3" data-name="Group 3"><path id="a_Compound_Path_2" data-name="Compound Path 2" class="acls-2" d="M2.31 15.1l1-2.35 1 2.35h-2m23.22-.93a1.34 1.34 0 0 1-.69.12h-1.72V13h1.74a1.49 1.49 0 0 1 .67.1.57.57 0 0 1 .29.53.63.63 0 0 1-.29.54zm12.24.93l-1-2.35-1 2.35zM15 11.74h-2.39l-1.7 4-1.84-4h-2.3v5.6l-2.39-5.6H2.25l-2.48 5.92h1.49l.51-1.32h3l.54 1.32h2.85V13l2.05 4.64h1.24L13.5 13v4.63H15zm5.8 4.69h-3.38v-1.15h3.23V14h-3.23v-1h3.35v-1.26H16v5.92h4.76zM26.7 12a3.29 3.29 0 0 0-1.7-.29h-3.29v5.92h1.41v-2.12h1.52c.51 0 .83 0 1 .26a1.73 1.73 0 0 1 .23 1.15v.75h1.42v-1.18a1.69 1.69 0 0 0-.23-1.07 1.59 1.59 0 0 0-.69-.5 1.66 1.66 0 0 0 1-1.57 1.37 1.37 0 0 0-.71-1.35zm1.54 5.63h1.45v-5.89H28.2zm18.17 0h-2l-2.67-4.43v4.43h-3l-.54-1.32h-2.9l-.56 1.31h-1.6a3 3 0 0 1-2-.66 3 3 0 0 1-.75-2.26 3.15 3.15 0 0 1 .76-2.31 2.88 2.88 0 0 1 2.15-.69h1.3V13h-1.32a1.35 1.35 0 0 0-1.09.35 1.9 1.9 0 0 0-.42 1.34 2 2 0 0 0 .4 1.39 1.34 1.34 0 0 0 1 .3h.6l2-4.65h2.1l2.39 5.6v-5.6h2.16l2.49 4.12v-4.11h1.46z"/><path id="a_Path_2" data-name="Path 2" class="acls-2" d="M50 20.75h-2.66a3 3 0 0 0-1.77.48v-.48h-3.86a2.76 2.76 0 0 0-1.69.48v-.48h-6.9v.48a3.76 3.76 0 0 0-1.91-.48h-4.55v.48a3.19 3.19 0 0 0-2-.48h-5.09L18.4 22l-1.09-1.27H9.7V29h7.47l1.2-1.29L19.5 29h4.6v-1.94h.46a4.92 4.92 0 0 0 2-.29V29h3.81v-2.17h.19c.23 0 .25 0 .25.24V29H42.3a3.34 3.34 0 0 0 1.93-.52V29h3.66a5 5 0 0 0 2.11-.39v15.1H-.29V18.83h2.41l.55-1.32h1.21l.54 1.32h4.76v-1l.43 1h2.46l.43-1v1h11.78v-2.17h.23c.17 0 .21 0 .21.28v1.87h6.1v-.53a4.76 4.76 0 0 0 2.26.51h2.57l.55-1.32h1.22L38 18.8h4.9v-1.22l.76 1.25h4v-8.24h-4v1l-.56-1h-4v1l-.5-1h-5.41a4.87 4.87 0 0 0-2.36.47v-.47h-3.76v.47a2.39 2.39 0 0 0-1.6-.47h-13.7l-.93 2.13-.94-2.13H5.58v1l-.49-1H1.41l-1.7 3.91V-6.72H50v27.47"/></g></g></svg><svg id="bankslip" data-name="Layer 1" width="40" height="30" viewBox="0 0 50 37" y="60" xmlns="http://www.w3.org/2000/svg"><defs><style>.bcls-1{fill:#1d1d1b}</style></defs><title>Artboard 9 copy 6</title><path class="bcls-1" d="M16.34 8.73h.46v18.49h-.46zm1.51 0h.46v18.49h-.46zm4.24 0h.46v18.49h-.46zm6.57 0h.46v18.49h-.46zm6.99 0h.46v18.49h-.46zm1 0h.46v18.49h-.46zm3.72 0h.46v20.13h-.46zm.75 0h.46v20.13h-.46zm-30.53 0h.46v20.13h-.46zm-.75 0h.46v20.13h-.46zm2.02 0h1.45v18.49h-1.45zm2.3 0h.94v18.49h-.94zm9.24 0h1.13v18.49H23.4zm7.31 0h1.13v18.49h-1.13zm7.73 0h1.13v18.49h-1.13zm-19.3 0h1.63v18.49h-1.63zm6.38 0h1.63v18.49h-1.63zm7.2 0h1.63v18.49h-1.63z"/><path class="bcls-1" d="M44.27 29.21a2 2 0 0 1-2 2H9.2a2 2 0 0 1-2-2V8.39a2 2 0 0 1 2-2h33a2 2 0 0 1 2 2zm1.36-20.82A3.42 3.42 0 0 0 42.22 5H9.2a3.42 3.42 0 0 0-3.41 3.39v20.82a3.41 3.41 0 0 0 3.41 3.41h33a3.42 3.42 0 0 0 3.41-3.41z"/></svg><svg version="1" id="diners" width="40" height="30" viewBox="0 0 50 37" x="40" xmlns="http://www.w3.org/2000/svg"><style>.cst0{fill:#1a1919}.cst1{fill:#154a74}</style><title>Artboard 9</title><path class="cst0" d="M26.2 31.8c0-.1-.1-.3-.1-.4l-.7-2v-.1c-.1 0-.2.1-.3.2 0 .2-.1.3-.2.5l-.6 1.7c-.1.2-.2.2-.3.2v.1h.9v-.1h-.1c-.1 0-.3 0-.3-.1s0-.2.1-.3l.1-.4h.8l.1.4c0 .1.1.2.1.3 0 .1-.1.1-.2.1h-.1v.1h1.1v-.1c-.2 0-.2 0-.3-.1zm.3.3h-1.1V32c.1 0 .2 0 .2-.1 0 0 0-.2-.1-.3l-.1-.4h-.9l-.1.4c0 .1-.1.2-.1.3 0 .1.2.1.3.1v.1h-.9V32c.1 0 .3-.1.3-.2l.6-1.7c0-.1.1-.3.1-.5.1 0 .3-.1.3-.2v.1l.7 2c0 .1.1.3.1.4 0 .1.1.2.3.2zm2.5-2.7h1.1v.1c-.1 0-.3 0-.3.2v2c0 .2.2.2.3.2v.1H29c.1 0 .3 0 .3-.2v-2c0-.3-.2-.3-.3-.4zm-4 .4l-.4 1.1h.7l-.3-1.1zm-.3 1.1l.3-1 .3 1h-.6zm4-1.6v.6h-.1c0-.1 0-.4-.3-.4h-.6v2c0 .3.1.3.3.3h.1v.2h-1.2.1c.2 0 .3 0 .3-.3v-2h-.6c-.3 0-.3.1-.4.3h-.1v-.6h.1c0 .1.1.1.2.1h2c.1-.1.2-.1.2-.2zm2.1-1.3c-1.6 0-2.7-1.1-2.7-2.6 0-1.4 1.3-2.5 2.6-2.5.6 0 1.1.2 1.6.4l.1 1h-.2c-.1-.8-.7-1.1-1.5-1.1s-2 .5-2 2.2c0 1.4 1 2.4 2.1 2.4.7 0 1.3-.5 1.4-1.2h.2l-.2 1c-.1.2-.9.4-1.4.4zm-6.9 1.5v-.1h-1v.1h.1c.1 0 .3 0 .3.3v1.4l-1.7-1.9h-.7v.1h.1c.2 0 .3.1.3.3v1.6c0 .3-.1.5-.3.5h-.1v.1h1v-.1h-.1c-.3 0-.3-.1-.3-.4V30l1.9 2.1h.2V30c-.1-.4 0-.5.3-.5zm-.5.5v2.1h-.1l-2-2.2v1.6c0 .3.1.4.4.4h.1v.1h-1v-.1h.1c.3 0 .3-.2.3-.5v-1.6c0-.2-.2-.3-.3-.3v-.1h.7l1.7 1.9v-1.4c0-.3-.2-.4-.3-.4h-.1v-.1h1v.1h-.1c-.2 0-.4 0-.4.5zm5.3-.7c0 .1-.1.1-.2.1h-2c-.1 0-.2 0-.2-.1h-.1v.6h.1c.1-.3.1-.3.3-.3h.6v2c0 .3-.1.3-.3.3h-.1v.1H28v-.1h-.1c-.2 0-.3 0-.3-.3v-2h.6c.2 0 .3.2.3.3h.1v-.6h.1zm.1.3v.3h-.1c0-.1 0-.4-.3-.4h-.6v2c0 .3.1.3.3.3h.1v.1H27v-.1h.1c.2 0 .3 0 .3-.3v-2h-.6c-.3 0-.3.1-.4.3h-.1v-.6h.1c0 .1.1.1.2.1h2c.1 0 .2 0 .2-.1h.1c-.1.2-.1.3-.1.4zm-2.6 2.2c-.1-.1-.1-.3-.1-.4l-.7-2v-.1c-.1 0-.2.1-.3.2 0 .1-.1.3-.1.5l-.6 1.7c-.3.2-.4.3-.6.3h.8c-.1 0-.3 0-.3-.2 0-.1 0-.2.1-.3l.1-.4h.9l.2.5c0 .1.1.2.1.3 0 .1-.2.1-.3.1h1.1c-.2 0-.3-.1-.3-.2zm-1.6-.9l.4-1.1.4 1.1h-.8zm-5.5-1.4h-.2v1.1h.2c.4 0 .6-.1.6-.6 0-.2-.2-.5-.6-.5zm0 1.2h-.2v-1.1h.2c.3 0 .5.2.5.5.1.4-.1.6-.5.6zm-.3-2.8h-1.5v-.2h.1c.2 0 .3 0 .3-.2v-1.8c0-.4-.2-.6-.6-.6-.2 0-.6.2-.8.3v2.1c0 .2.2.2.4.2h.1v.2h-1.5v-.2h.1c.2 0 .3 0 .3-.2v-1.9c0-.3-.1-.3-.4-.5V25l.9-.3v.6c.4-.3.7-.5 1.2-.5.6 0 .8.4.8 1v1.8c0 .2.2.2.3.2h.1v.1zm1.5 3.8l-.7-1c.3-.1.5-.3.5-.7 0-.5-.4-.6-.9-.7H18v.1h.1c.1 0 .3 0 .3.3v1.9c0 .2-.1.2-.3.2H18v.2h1.1-.1c-.2 0-.3 0-.3-.3v-.8h.3c.2.4.5.8.8 1.2h.8V32c-.1-.1-.2-.1-.3-.3zm-1.2-1h-.2v-1.2h.2c.3 0 .6.2.6.6 0 .4-.2.6-.6.6zm1.2 1l-.6-1c.3-.1.5-.3.5-.7 0-.5-.4-.7-.9-.7h-1.2v.1h.1c.1 0 .2 0 .3.3v1.9c0 .1-.1.2-.3.2h-.1v.1h1.2v-.1h-.1c-.2 0-.3 0-.3-.3v-.8h.2c.2.4.5.8.8 1.2h.8v-.1c-.2.1-.3.1-.4-.1zm.4.4h-.8c-.3-.4-.5-.8-.8-1.2h-.2v.8c0 .3.1.3.3.3h.1v.1H18V32h.1c.1 0 .3-.1.3-.2v-1.9c0-.3-.2-.3-.3-.3H18v-.1h1.2c.5 0 .9.1.9.7 0 .3-.2.5-.5.7l.6 1c.1.2.2.2.4.2zm-2.9-.7c-.1.4-.3.5-.8.5-.2 0-.4 0-.4-.2v-.9h.4c.3 0 .3.1.3.4h.1v-.8h-.1c0 .2-.1.3-.3.3h-.4v-1h.5c.4 0 .4.2.4.4h.1V29.5h-1.9v.1h.1c.1 0 .3 0 .3.2v2c0 .2-.1.2-.3.2h-.1v.1h2c0-.2.1-.4.1-.6v-.1zm0 .7h-2V32h.1c.1 0 .3 0 .3-.2v-2c0-.2-.1-.2-.3-.2h-.1v-.1h1.9v.6h-.1c0-.2-.1-.4-.5-.4h-.5v1h.4c.2 0 .3-.1.3-.3h.1v.8h-.1c0-.2 0-.4-.3-.4h-.5v.9c0 .2.2.2.5.2.5 0 .7 0 .8-.5h.1c0 .3-.1.5-.1.7zm5.6-2.7h.5v.1c-.2 0-.4 0-.4.5v2.1h-.1l-2-2.2v1.6c0 .3.1.5.4.5h-1c.3 0 .4-.2.4-.5v-1.6c0-.2-.2-.4-.4-.4v-.1h.7l1.7 1.9v-1.4c0-.3-.2-.4-.3-.4h-.1v-.1h.6zm-.2 1.9zm6.3-1.9h-.6v.1h.1c.1 0 .3 0 .3.2v2c0 .2-.1.2-.3.2h-.1v.1h1.2v-.1H30c-.1 0-.3 0-.3-.2v-2c0-.2.1-.2.3-.2h.1v-.1h-.6zm.6.1c-.2 0-.3 0-.3.2v2c0 .2.1.2.3.2h.1v.1H29v-.1c.1 0 .3 0 .3-.2v-2c0-.2-.1-.2-.3-.2v-.1h1.2v.1zm10.8 2.2c.1-.1.1-.2.1-.3h.1c0 .2-.1.4-.1.6h-2c.1 0 .3 0 .3-.3v-2c0-.2-.2-.2-.3-.2v-.1h1.2v.1h-.1c-.1 0-.3 0-.3.2v2c0 .2.1.2.2.2h.5c.2 0 .4-.1.4-.2zm-2.3.1c0-.1-.1-.3-.1-.4l-.7-2v-.1c-.1 0-.2.1-.3.2 0 .1-.1.3-.1.5l-.6 1.7c-.1.2-.2.3-.3.3h.8c-.1 0-.3 0-.3-.2 0-.1 0-.2.1-.3l.1-.4h.9l.2.5c0 .1.1.2.1.3 0 .1-.2.1-.3.1h1c-.4 0-.5-.1-.5-.2zm-1.6-.9l.4-1.1.4 1.1H37zm.4-1.1l-.4 1.1h.7l-.3-1.1zm-.3 1.1l.3-1 .3 1h-.6zm3.9.5c0 .1-.1.2-.1.3-.1.1-.2.2-.4.2H40c-.1 0-.2-.1-.2-.2v-2c0-.2.1-.2.2-.2h.1v-.1h-1.2v.1h.1c.1 0 .3 0 .3.2v2c0 .2-.1.2-.3.2v.1h2c0-.2.1-.4.1-.6H41zm0 .7h-2V32h.1c.1 0 .3 0 .3-.3v-1.9c0-.2-.2-.2-.3-.2H39v-.1h1.2v.1h-.1c-.1 0-.3 0-.3.2v2c0 .2.1.2.2.2h.5c.2 0 .3-.1.4-.2.1-.1.1-.2.1-.3h.1c0 .1 0 .3-.1.6zm.1-2.8c-.2 0-.4.2-.4.4s.2.4.4.4.4-.2.4-.4-.2-.4-.4-.4zm0 .7c-.2 0-.3-.2-.3-.3 0-.2.1-.3.3-.3.2 0 .3.2.3.3 0 .2-.1.3-.3.3zm0-.3c.1 0 .1-.1.1-.1 0-.1-.1-.1-.1-.1h-.2c.1 0 .1 0 .1.1v.3h-.1.2-.1v-.1l.1-.1c0 .1 0 .2.1.2h.1l-.2-.2zm0 0l-.1-.2s.1 0 .1.1c.1.1 0 .1 0 .1zm-2.5 2.1c0-.1-.1-.3-.1-.4l-.7-2v-.1c-.1 0-.2.1-.3.2 0 .2-.1.3-.2.5l-.6 1.7c-.1.2-.2.2-.3.2v.1h.9v-.1H37c-.1 0-.3 0-.3-.1s0-.2.1-.3l.1-.4h.8l.1.4c0 .1.1.2.1.3 0 .1-.1.1-.2.1h-.1v.1h1.1v-.1l-.1-.1zm.3.3h-1.1V32c.1 0 .2 0 .2-.1 0 0 0-.2-.1-.3l-.2-.4H37l-.1.4c0 .1-.1.2-.1.3 0 .1.2.1.3.1v.1h-.9V32c.1 0 .3-.1.3-.2l.6-1.7c0-.1.1-.3.1-.5.1 0 .3-.1.3-.2v.1l.7 2c0 .1.1.3.1.4 0 .1.1.2.2.2zm-7.3-2.8c-.8 0-1.4.6-1.4 1.4 0 .8.6 1.4 1.4 1.4.8 0 1.5-.6 1.5-1.5 0-.8-.7-1.3-1.5-1.3zm0 2.8c-.8 0-1.4-.5-1.4-1.4 0-.8.6-1.4 1.4-1.4.8 0 1.5.5 1.5 1.3 0 .9-.6 1.5-1.5 1.5zm0-2.7c-.8 0-1.4.6-1.4 1.4 0 .8.6 1.3 1.4 1.3.8 0 1.4-.6 1.4-1.4.1-.8-.6-1.3-1.4-1.3zm.1 2.6c-.6 0-.9-.7-.9-1.3 0-.5.2-1.1.9-1.1.6 0 .9.7.9 1.2s-.2 1.2-.9 1.2zm-.1-2.5c-.7 0-.9.6-.9 1.1 0 .7.3 1.3.9 1.3.7 0 .9-.6.9-1.2.1-.5-.2-1.2-.9-1.2zm.1 2.4c-.6 0-.9-.6-.9-1.3 0-.5.2-1.1.8-1.1.6 0 .9.7.9 1.2 0 .6-.1 1.2-.8 1.2zm4.1-2.5h.5v.1c-.2 0-.4 0-.4.5v2.1h-.1l-2-2.2v1.6c0 .3.1.5.4.5h.1-1c.3 0 .4-.2.4-.5v-1.6c0-.2-.2-.4-.4-.4v-.1h.7l1.7 1.9v-1.4c0-.3-.2-.4-.3-.4h-.1v-.1h.5zm.5.1v-.1h-1v.1h.1c.1 0 .3 0 .3.3v1.4L34 29.4h-.8v.1h.1c.2 0 .3.1.3.3v1.6c0 .3-.1.5-.3.5h-.1v.1h1v-.1h-.1c-.3 0-.3-.1-.3-.4V30l1.9 2.1h.2V30c0-.4.1-.5.4-.5zm-.5.5v2.1h-.1l-2-2.2v1.6c0 .3.1.4.4.4h.1v.1h-1v-.1h.1c.3 0 .3-.2.3-.5v-1.6c0-.2-.2-.3-.3-.3v-.1h.7l1.7 1.9v-1.4c0-.3-.2-.4-.3-.4h-.1v-.1h1v.1h-.1c-.2 0-.4 0-.4.5zm-.2 1.3zm-20.1-2c0 .1-.1.1-.2.1h-2c-.1 0-.2 0-.2-.1H13v.6h.1c.1-.3.1-.3.3-.3h.6v2c0 .3-.1.3-.3.3h-.1v.1h1.2v-.1h-.1c-.2 0-.3 0-.3-.3v-2h.6c.2 0 .3.2.3.3h.1v-.6h.1zm.1.3v.3h-.1c0-.1 0-.4-.3-.4h-.6v2c0 .3.1.3.3.3h.1v.1h-1.2v-.1h.1c.2 0 .3 0 .3-.3v-2h-.6c-.3 0-.3.1-.4.3H13v-.6h.1c0 .1.1.1.2.1h2c.1 0 .2 0 .2-.1h.1v.4zm-3.3 1.7zm10.3-5.5v1.6c0 .2.1.2.3.2h.4v.2h-1.8v-.2h.2c.2 0 .3 0 .3-.2v-2c0-.2-.3-.3-.4-.3V25c.5-.2.8-.4.9-.4 0 0 .1 0 .1.1v.6c.2-.3.5-.7.9-.7.2 0 .4.1.4.4 0 .2-.1.4-.3.4-.2 0-.2-.2-.5-.2-.1.1-.5.2-.5.6zm3 1.5c0-.8-1.5-.6-1.5-1.7 0-.4.3-.9 1.1-.9.2 0 .5.1.8.2v.7h-.2c-.1-.4-.3-.7-.8-.7-.3 0-.5.2-.5.5 0 .8 1.6.6 1.6 1.7 0 .5-.4 1-1.2 1-.3 0-.6-.1-.9-.2l-.1-.8h.1c.1.5.4.9.9.9.6-.2.7-.5.7-.7zM9.1 29.4h-.6v.1h.1c.1 0 .3 0 .3.2v2c0 .2-.1.2-.3.2h-.1v.1h1.2v-.1h-.1c-.1 0-.3 0-.3-.2v-2c0-.2.1-.2.3-.2h.1v-.1h-.6zm.6.1c-.2 0-.3 0-.3.2v2c0 .2.1.2.3.2h.1v.1H8.6v-.1h.1c.1 0 .3 0 .3-.2v-2c0-.2-.1-.2-.3-.2h-.2v-.1h1.2v.1zm2.7-.1h.5v.1c-.2 0-.4 0-.4.5v2.1h-.1l-2-2.2v1.6c0 .3.1.5.4.5h-1c.3 0 .4-.2.4-.5v-1.6c0-.2-.2-.4-.4-.4v-.1h.7l1.7 1.9v-1.4c0-.3-.2-.4-.3-.4h-.1v-.1h.6zm-3.3 0h.6v.1c-.1 0-.3 0-.3.2v2c0 .2.2.2.3.2v.1H8.6c.1 0 .3 0 .3-.2v-2c0-.2-.2-.2-.3-.2v-.1c.1-.1.3-.1.5-.1zM21.3 26c.1-.1.1-.1.1-.2 0-.7-.6-1.1-1.2-1.1-.5 0-1.4.4-1.4 1.8 0 .4.2 1.5 1.3 1.5.6 0 1-.4 1.3-.8l-.1-.1c-.3.3-.6.5-.9.5-.6 0-1-.5-1-1.2V26h1.9zm-1.2-1.1c.4 0 .6.3.6.6 0 .1 0 .2-.2.2h-1.2c.1-.5.4-.8.8-.8zm-9.6 3c2.5 0 2.9-1.7 2.9-2.4 0-1.2-1-2.4-2.8-2.4h-2v.2c.3 0 .6 0 .6.6v3.4c0 .5-.2.5-.6.5v.2h.9c.3-.1.6-.1 1-.1zm-.7-4.6h.5c1.3 0 2.2.9 2.2 2.2 0 1-.5 2.2-2 2.2-.3 0-.7-.1-.7-.6v-3.8zm4.2 0c0-.2.2-.3.3-.3.2 0 .3.2.3.3 0 .2-.2.4-.3.4-.1-.1-.3-.2-.3-.4zm19.2 4.2v-3.9c0-.5-.1-.5-.4-.5V23c.3-.1.6-.2.7-.3.1 0 .1-.1.2-.1 0 0 .1 0 .1.1v4.8c0 .2.2.2.3.2h.1v.2h-1.5v-.2h.1c.3 0 .4 0 .4-.2zm-18.9.4h-.8v-.2h.1c.2 0 .3 0 .3-.2v-1.9c0-.3-.1-.3-.4-.5V25c.3-.1.7-.2.7-.3h.1s.1 0 .1.1v2.7c0 .2.2.2.3.2h.1v.2h-.5zm23.8-4.3v3c0 .4 0 .8-.1 1.2l.1.1.2-.2c.2.1.5.2 1 .2 1 0 1.7-.9 1.7-1.8 0-.8-.5-1.5-1.3-1.5-.4 0-.8.3-1 .5v-2.5c0-.1 0-.1-.1-.1 0 0-.1 0-.2.1s-.4.2-.7.3v.1c.3.1.4.1.4.6zm.5 1.8c.2-.2.4-.3.7-.3.5 0 1.1.6 1.1 1.4 0 .6-.3 1.4-1.1 1.4-.5 0-.7-.4-.7-.7v-1.8zm-20.8 6v.6h-2c.1 0 .3 0 .3-.2v-2c0-.2-.2-.2-.3-.2v-.1h1.9v.6h-.1c0-.2-.1-.4-.5-.4h-.5v1h.4c.2 0 .3-.1.3-.3h.1v.8h-.1c0-.2 0-.4-.3-.4h-.5v.9c0 .3.2.3.5.3.5-.1.7-.1.8-.6zm17.4-4.6c0 .2 0 .8.6.8.2 0 .6-.2.8-.4v-1.9c0-.1-.3-.2-.6-.3v-.1c.6 0 1-.1 1.1-.1.1 0 .1 0 .1.1v2.6c0 .1.1.1.2.1h.3v.1c-.3 0-.9.2-1 .2v-.6c-.4.3-.7.6-1.2.6-.4 0-.8-.2-.8-.8v-1.8c0-.2 0-.4-.4-.4v-.1h.9c.1 0 .1 0 .1.2v1.8zm-19.7 2.5v.6h-.1c0-.1 0-.4-.3-.4h-.6v2c0 .3.1.3.3.3h.1v.2h-1.2.1c.2 0 .3 0 .3-.3v-2h-.6c-.3 0-.3.1-.4.3H13v-.6h.1c0 .1.1.1.2.1h2c.1-.1.2-.1.2-.2zm-3.1.1h-.5v.1h.1c.1 0 .3 0 .3.3v1.4l-1.7-1.9h-.8v.1h.1c.2 0 .3.1.3.3v1.6c0 .3-.1.5-.3.5h-.1v.1h1v-.1h-.1c-.3 0-.3-.1-.3-.4V30l1.9 2.1h.2V30c0-.5.2-.5.3-.5h.1v-.1h-.5zm.5.1c-.2 0-.4 0-.4.5v2.1h-.1l-2-2.2v1.6c0 .3.1.4.4.4h.1v.1h-1v-.1h.1c.3 0 .3-.2.3-.5v-1.6c0-.2-.2-.3-.3-.3v-.1h.7l1.7 1.9v-1.4c0-.3-.2-.4-.3-.4H12v-.1h1v.1z"/><path class="cst1" d="M24.6 8.6v8.8c1.8-.7 3-2.4 3-4.4.1-2-1.2-3.7-3-4.4zM18.2 13c0 2 1.3 3.7 3 4.4V8.6c-1.7.7-3 2.4-3 4.4z"/><path class="cst1" d="M26.8 4.9H23c-4.5 0-8.2 3.4-8.2 8.2 0 4.4 3.7 8.1 8.2 8.1h3.8c4.5 0 8.5-3.6 8.5-8.1 0-4.9-4.1-8.2-8.5-8.2zM23 20.5c-4.1 0-7.5-3.3-7.5-7.5 0-4.1 3.3-7.5 7.5-7.5 4.1 0 7.5 3.3 7.5 7.5-.1 4.1-3.4 7.5-7.5 7.5z"/></svg><svg version="1" width="40" height="30" viewBox="0 0 50 37" id="elo" y="30" xmlns="http://www.w3.org/2000/svg"><title>Artboard 9</title><path d="M25 30.5c-6.7 0-12.1-5.5-12-12.2.1-6.7 5.6-11.9 12.2-11.8 6.6.1 11.9 5.5 11.8 12.1-.1 6.6-5.4 11.9-12 11.9zm-1.6-12.4c-.2-1.3-1.5-2.5-2.9-2.8-1.7-.3-3.1.6-3.8 1.9-.7 1.3-.5 2.9.2 3.7 2.1-.9 4.3-1.8 6.5-2.8zm.5-4.4v7.2c0 .5.2.8.7.9.4.2.8.3 1.2.5.1 0 .1 0 .2.1.2-.4.3-.9.5-1.3-.1 0-.2-.1-.2-.1-.2-.1-.5-.2-.7-.3-.3-.1-.3-.1-.3-.4v-6.5H25c-.4-.1-.7-.1-1.1-.1zm9.5 6.7c.7-1.2.4-3.3-1.2-4.5-1.6-1.1-3.6-.7-4.5.3.3.4.7.7 1 1.1.9-.6 1.7-.7 2.6-.2.9.6 1.1 1.5.8 2.5.5.3.9.5 1.3.8zm-1.7.1c-.8.6-1.7.8-2.6.2-1-.6-1.2-1.5-.8-2.6-.4-.2-.9-.5-1.3-.7-.5 1.1-.5 2.2.1 3.2.7 1.3 1.8 1.9 3.2 2 .9 0 2.2-.5 2.4-1-.4-.4-.7-.8-1-1.1zM17.9 22c1.3.9 3.4.9 4.6-.5l-1.1-1.1c-.5.3-.9.5-1.3.6-.5.1-.9-.1-1.3-.3-.4.5-.7.9-.9 1.3z"/><path d="M17.8 19.2c-.1-.9.4-1.8 1.2-2.1.8-.4 1.9-.2 2.5.5-1.3.5-2.5 1-3.7 1.6z"/></svg><svg id="hipercard" data-name="Layer 1" width="40" height="30" viewBox="0 0 50 37" x="40" y="30" xmlns="http://www.w3.org/2000/svg"><defs><style>.ecls-1,.ecls-2{fill:#991915;fill-rule:evenodd}.ecls-2{fill:#fff}</style></defs><title>Artboard 9 copy 4</title><path id="efundo" class="ecls-1" d="M15.88 9.5h-4.32c-1.91.09-3.47.86-3.92 2.44-.23.83-.36 1.74-.55 2.59-.93 4.36-1.76 8.84-2.66 13.11h33.65c2.6 0 4.39-.55 4.87-2.61.22-1 .44-2 .65-3.1.84-4.11 1.67-8.21 2.53-12.44z"/><path id="ehipercard" class="ecls-2" d="M15.55 15.95c.18-.12.41-.69.15-.93a.5.5 0 0 0-.42-.06.51.51 0 0 0-.36.19c-.11.16-.22.63 0 .8s.51.05.63 0zM13 15c-.13.84-.28 1.66-.42 2.49h-2.8c.17-.81.29-1.66.46-2.47h-1c-.36 2.05-.69 4.14-1.1 6.15h1c.16-1 .31-2.08.53-3.06a25.19 25.19 0 0 1 2.78 0c-.17 1-.39 2-.55 3h1c.33-2.08.68-4.15 1.1-6.15zm14.61 1.77a1.39 1.39 0 0 0-1.73.74c.07-.23.09-.5.15-.74h-.8c-.2 1.52-.48 2.94-.76 4.38h.91a17.23 17.23 0 0 1 .46-2.82 1.26 1.26 0 0 1 1.67-.91c-.02-.21.05-.42.07-.63zm.51 3.35a2.21 2.21 0 0 1-.12-.82 3 3 0 0 1 .61-1.69 2.22 2.22 0 0 1 2.15-.13c0-.25.07-.47.11-.72a3.43 3.43 0 0 0-3 .57 3.6 3.6 0 0 0-.72 3c.33 1.07 1.79 1.13 3 .72.05-.21.08-.45.13-.67-.67.33-1.9.51-2.19-.24zm10.18-3.33a1.38 1.38 0 0 0-1.73.67c.07-.21.08-.48.15-.7h-.8q-.32 2.26-.78 4.38H36a9.92 9.92 0 0 1 .21-1.58c.19-1.22.48-2.55 1.9-2.15.08-.17.1-.41.16-.6zm-23.65 0v.06c-.2 1.49-.47 2.92-.76 4.32h.91c.22-1.5.47-3 .78-4.38zm8-.08a2.37 2.37 0 0 0-1.6.65 3.66 3.66 0 0 0-.82 2.64c.16 1.46 2 1.41 3.44 1.05 0-.26.09-.48.13-.72a2.89 2.89 0 0 1-2.26.15c-.47-.29-.47-1-.32-1.69h3a3.12 3.12 0 0 0 .08-1.41c-.23-.57-.97-.73-1.71-.67zm.86 1.6h-2.19a1.26 1.26 0 0 1 1.2-1.05c.66-.03 1.12.24.93 1.05zm-4.3-1.52a2.39 2.39 0 0 0-2.11.38c0-.14.06-.24.06-.38h-.78c-.32 2.16-.71 4.26-1.12 6.34h.91c.13-.81.22-1.67.4-2.42.21.8 1.56.65 2.13.34 1.12-.64 2.03-3.66.45-4.26zm-.72 3.56c-.48.51-1.68.51-1.77-.36a4.3 4.3 0 0 1 .17-1.16c.07-.39.12-.77.19-1.12.48-.58 1.88-.65 2 .32a3.22 3.22 0 0 1-.65 2.32zm23.15-5.45c-.08.68-.18 1.34-.32 2-2.22-.7-3.59.93-3.56 3a1.59 1.59 0 0 0 .32 1.05 2.05 2.05 0 0 0 2.23.19 1.58 1.58 0 0 0 .32-.32c.06-.07.15-.27.17-.21a4.71 4.71 0 0 0-.08.65h.82a57.41 57.41 0 0 1 1-6.28zm-2 5.8c-.61 0-.91-.36-.93-1 0-1.1.46-2.31 1.43-2.42a2.38 2.38 0 0 1 1.12.17c-.33 1.23-.26 3.21-1.64 3.24zm-7.82-3.9c0 .25-.11.48-.17.72.53-.13 2.2-.55 2.36.17a1.25 1.25 0 0 1-.11.67c-1.51-.14-2.73.11-3.06 1.18a1.33 1.33 0 0 0 .48 1.62 2 2 0 0 0 2.34-.65 2.75 2.75 0 0 0-.06.67h.78a12.09 12.09 0 0 1 .23-2 8 8 0 0 0 .25-1.64c-.07-1.19-1.99-.78-3.06-.75zm1.48 3.54c-.47.46-1.78.59-1.64-.51.11-.91 1.1-1.1 2.17-1a2.7 2.7 0 0 1-.56 1.5z"/></svg><svg id="mastercard" data-name="Layer 1" width="40" height="30" viewBox="0 0 50 37" x="80" xmlns="http://www.w3.org/2000/svg"><defs><style>.fcls-1{fill:none}.fcls-2{fill:#ff5f00}.fcls-3{fill:#eb001b}.fcls-4{fill:#f79e1b}</style></defs><title>Artboard 9 copy</title><path class="fcls-1" d="M2.67.84h44.79v36.74H2.67z"/><path id="f_Compound_Path_" data-name="Compound Path" d="M13.76 33v-1.87a1.09 1.09 0 0 0-1-1.16h-.13a1.13 1.13 0 0 0-1 .52 1.07 1.07 0 0 0-1-.52 1 1 0 0 0-.85.43V30h-.64v3h.64v-1.66a.68.68 0 0 1 .58-.76h.13c.42 0 .63.27.63.77V33h.64v-1.66a.69.69 0 0 1 .6-.77h.11c.43 0 .64.27.64.77V33zm9.48-3h-1v-.88h-.67V30H21v.58h.59V32c0 .68.26 1.08 1 1.08a1.49 1.49 0 0 0 .79-.23l-.18-.54a1.17 1.17 0 0 1-.56.16c-.32 0-.42-.2-.42-.49v-1.36h1zm5.41 0a.86.86 0 0 0-.77.43v-.35h-.63V33h.63v-1.68c0-.48.21-.75.62-.75a1 1 0 0 1 .4.07l.2-.6a1.36 1.36 0 0 0-.45-.08zm-8.18.31a2.18 2.18 0 0 0-1.19-.31c-.74 0-1.21.35-1.21.93s.35.77 1 .86h.3c.35 0 .51.14.51.31s-.23.35-.67.35a1.55 1.55 0 0 1-1-.31l-.3.49a2.1 2.1 0 0 0 1.26.38c.84 0 1.33-.4 1.33-1s-.38-.78-1-.87h-.3c-.27 0-.49-.09-.49-.29s.21-.34.56-.34a1.88 1.88 0 0 1 .91.25zm17-.31a.86.86 0 0 0-.77.43v-.35h-.63V33h.63v-1.68c0-.48.21-.75.62-.75a1 1 0 0 1 .4.07l.2-.6a1.36 1.36 0 0 0-.45-.08zm-8.18 1.5A1.47 1.47 0 0 0 30.7 33h.15a1.53 1.53 0 0 0 1-.35l-.31-.51a1.28 1.28 0 0 1-.76.26.94.94 0 0 1 0-1.87 1.28 1.28 0 0 1 .76.26l.31-.51a1.53 1.53 0 0 0-1-.35 1.47 1.47 0 0 0-1.56 1.53zm5.94 0V30h-.63v.35a1.11 1.11 0 0 0-.92-.43 1.53 1.53 0 1 0 0 3.06 1.11 1.11 0 0 0 .92-.43v.35h.63zm-2.36 0a.88.88 0 1 1 .88.93.87.87 0 0 1-.88-.86v-.07zM25.21 30a1.53 1.53 0 0 0 0 3.06 1.77 1.77 0 0 0 1.2-.41l-.31-.47a1.39 1.39 0 0 1-.85.31.81.81 0 0 1-.87-.71h2.17v-.24A1.4 1.4 0 0 0 25.29 30h-.08zm0 .57a.72.72 0 0 1 .74.7h-1.51a.75.75 0 0 1 .77-.71zm15.92 1v-2.7h-.63v1.53a1.11 1.11 0 0 0-.92-.43 1.53 1.53 0 0 0 0 3.06 1.11 1.11 0 0 0 .92-.43v.4h.63zm-2.36 0a.88.88 0 1 1 .88.93.87.87 0 0 1-.88-.86v-.1zm-21.43 0V30h-.63v.35a1.11 1.11 0 0 0-.92-.43 1.53 1.53 0 0 0 0 3.06 1.11 1.11 0 0 0 .92-.43v.35h.63zm-2.36 0a.88.88 0 1 1 .88.93.87.87 0 0 1-.88-1z"/><g id="f_Group_" data-name="Group"><path class="fcls-2" d="M20.27 7.81h9.61v17.27h-9.61z"/><path id="f_Path_" data-name="Path" class="fcls-3" d="M20.87 16.45a11 11 0 0 1 4.2-8.64 11 11 0 1 0 0 17.27 11 11 0 0 1-4.2-8.63z"/><path class="fcls-4" d="M42.85 16.45a11 11 0 0 1-17.77 8.63 11 11 0 0 0 0-17.27 11 11 0 0 1 17.77 8.64z"/></g></svg><svg id="visa" data-name="Layer 1" width="40" height="30" viewBox="0 0 50 37" x="80" y="30" xmlns="http://www.w3.org/2000/svg"><defs><style>.gcls-1{fill:#005098}.gcls-2{fill:#f6a500}</style></defs><title>Artboard 9</title><path class="gcls-1" d="M18.95 24.57l2.01-11.76h3.2l-2 11.76h-3.21zM33.79 13.1a8.28 8.28 0 0 0-2.87-.49c-3.17 0-5.4 1.6-5.42 3.88 0 1.69 1.59 2.63 2.81 3.2s1.69.94 1.69 1.45c0 .79-1 1.15-1.92 1.15a6.72 6.72 0 0 1-3-.62l-.41-.19-.45 2.63a10.15 10.15 0 0 0 3.57.63c3.37 0 5.56-1.58 5.58-4 0-1.34-.84-2.36-2.69-3.2-1.12-.54-1.81-.91-1.8-1.46s.58-1 1.84-1a5.91 5.91 0 0 1 2.4.45l.29.14.43-2.55m8.16-.3h-2.46a1.6 1.6 0 0 0-1.68 1l-4.77 10.76h3.37l.68-1.77h4.11c.1.41.39 1.76.39 1.76h3L42 12.82m-4 7.58l1.28-3.29s.26-.68.43-1.12L40 17l.74 3.4zm-21.74-7.58l-3.14 8-.33-1.63a9.18 9.18 0 0 0-4.44-4.94l2.87 10.29h3.39l5-11.74h-3.4"/><path class="gcls-2" d="M10.21 12.81H5v.24c4 1 6.68 3.33 7.79 6.16l-1.12-5.41a1.34 1.34 0 0 0-1.45-1"/></svg><svg width="10" height="6" viewBox="0 0 10 6" id="wine--arrow-down" x="40" y="84" xmlns="http://www.w3.org/2000/svg"><defs><style>.hcls-1{fill:#999;fill-rule:evenodd}</style></defs><path id="hShape_13_copy" data-name="Shape 13 copy" class="hcls-1" d="M5 5.994L0 .763.731 0 5 4.47 9.278 0l.729.762L5 5.994m0-20.988L0-9.763.731-9 5-13.47 9.278-9l.729-.762L5-14.994"/></svg><svg preserveAspectRatio="xMidYMid" width="5" height="8" viewBox="0 0 5 8" id="wine--arrow-right" x="92" y="90" xmlns="http://www.w3.org/2000/svg"><defs><style>.icls-1{fill:#999;fill-rule:evenodd}</style></defs><path d="M4.963 3.977L.612 8 .05 7.381l3.698-3.394L.034.595l.564-.617 4.365 3.999z" class="icls-1"/></svg><svg width="10" height="6" viewBox="0 0 10 6" id="wine--arrow-up" x="50" y="84" xmlns="http://www.w3.org/2000/svg"><defs><style>.jcls-1{fill:#999;fill-rule:evenodd}</style></defs><path id="jShape_13_copy" data-name="Shape 13 copy" class="jcls-1" d="M5 20.994l-5-5.231L.731 15 5 19.47 9.278 15l.729.762L5 20.994M5 .006L0 5.237.731 6 5 1.53 9.278 6l.729-.762L5 .006"/></svg><svg width="16" height="16" viewBox="0 0 16 16" id="wine--close" x="60" y="90" xmlns="http://www.w3.org/2000/svg"><defs><style>.kcls-1{fill:#9f9f9f;fill-rule:evenodd}</style></defs><path class="kcls-1" d="M8 16a8 8 0 1 1 8-8 8.018 8.018 0 0 1-8 8zM8 .882a7.12 7.12 0 1 0 7.13 7.119A7.134 7.134 0 0 0 8 .882zm-3.47 11.21l-.62-.622 7.56-7.559.62.622-7.56 7.559m6.94 0L3.91 4.533l.62-.622 7.56 7.559-.62.622"/></svg><svg width="13" height="26" viewBox="0 0 13 26" id="wine--facebook" y="90" xmlns="http://www.w3.org/2000/svg"><defs><style>.lcls-1{fill:#e43fa0;fill-rule:evenodd}</style></defs><path class="lcls-1" d="M8.67 8.667v-2.58c0-1.164.25-1.753 2.06-1.753H13V0H9.53C5.2 0 3.47 2.891 3.47 6.067v2.6H0V13h3.47v13h5.2V13h3.82L13 8.667H8.67"/></svg><svg width="26" height="26" viewBox="0 0 26 26" id="wine--instagram" x="13" y="90" xmlns="http://www.w3.org/2000/svg"><defs><style>.mcls-1{fill:#e43fa0;fill-rule:evenodd}</style></defs><path class="mcls-1" d="M13 0C9.47 0 9.03.015 7.64.078a9.609 9.609 0 0 0-3.16.6 6.656 6.656 0 0 0-3.8 3.8 9.508 9.508 0 0 0-.6 3.156C.01 9.021 0 9.463 0 12.994s.01 3.973.08 5.36a9.51 9.51 0 0 0 .6 3.156 6.656 6.656 0 0 0 3.8 3.8 9.609 9.609 0 0 0 3.16.6c1.39.063 1.83.078 5.36.078s3.97-.015 5.36-.078a9.609 9.609 0 0 0 3.16-.6 6.656 6.656 0 0 0 3.8-3.8 9.51 9.51 0 0 0 .6-3.156c.07-1.387.08-1.829.08-5.36s-.01-3.973-.08-5.36a9.508 9.508 0 0 0-.6-3.156 6.656 6.656 0 0 0-3.8-3.8 9.609 9.609 0 0 0-3.16-.6C16.97.015 16.53 0 13 0m0 2.342c3.47 0 3.88.013 5.25.076a7.238 7.238 0 0 1 2.42.448 4.025 4.025 0 0 1 1.49.972 3.891 3.891 0 0 1 .97 1.495 7.182 7.182 0 0 1 .45 2.414c.06 1.371.08 1.782.08 5.253s-.02 3.882-.08 5.253a7.181 7.181 0 0 1-.45 2.414 3.892 3.892 0 0 1-.97 1.495 4.025 4.025 0 0 1-1.49.972 7.233 7.233 0 0 1-2.42.448c-1.37.063-1.78.076-5.25.076s-3.88-.013-5.25-.076a7.233 7.233 0 0 1-2.42-.448 4.025 4.025 0 0 1-1.49-.972 3.892 3.892 0 0 1-.97-1.495 7.181 7.181 0 0 1-.45-2.414c-.06-1.371-.08-1.782-.08-5.253s.02-3.882.08-5.253a7.182 7.182 0 0 1 .45-2.414 3.891 3.891 0 0 1 .97-1.495 4.025 4.025 0 0 1 1.49-.972 7.238 7.238 0 0 1 2.42-.448c1.37-.062 1.78-.076 5.25-.076M13 6a7 7 0 1 0 7 7 7 7 0 0 0-7-7m0 11.5a4.5 4.5 0 1 1 4.5-4.5 4.5 4.5 0 0 1-4.5 4.5m8.7-11.4a1.6 1.6 0 1 1-1.6-1.6 1.6 1.6 0 0 1 1.6 1.6"/></svg><svg width="18" height="18" viewBox="0 0 18 18" id="wine--magnifier" x="100" y="60" xmlns="http://www.w3.org/2000/svg"><defs><style>.ncls-1{fill:#9f9f9f;fill-rule:evenodd}</style></defs><path class="ncls-1" d="M7.36 14.716a7.359 7.359 0 1 1 7.359-7.359 7.368 7.368 0 0 1-7.359 7.359zm0-13.659a6.3 6.3 0 1 0 6.3 6.3 6.307 6.307 0 0 0-6.3-6.3zM17.2 18l-5.122-5.122.8-.8L18 17.2l-.8.8"/></svg><svg width="16" height="16" viewBox="0 0 16 16" id="wine--reset" x="76" y="90" xmlns="http://www.w3.org/2000/svg"><defs><style>.ocls-1{fill:#f84760;fill-rule:evenodd}</style></defs><path class="ocls-1" d="M8 16a8 8 0 1 1 8-8 8.018 8.018 0 0 1-8 8zM8 .882a7.12 7.12 0 1 0 7.13 7.119A7.134 7.134 0 0 0 8 .882zm-3.47 11.21l-.62-.622 7.56-7.559.62.622-7.56 7.559m6.94 0L3.91 4.533l.62-.622 7.56 7.559-.62.622"/></svg><svg width="30" height="24" viewBox="0 0 30 24" id="wine--twitter" x="40" y="60" xmlns="http://www.w3.org/2000/svg"><defs><style>.pcls-1{fill:#e43fa0;fill-rule:evenodd}</style></defs><path class="pcls-1" d="M29.2 2.844a11.9 11.9 0 0 1-3.44.956A6.079 6.079 0 0 0 28.4.45a11.861 11.861 0 0 1-3.81 1.469A5.94 5.94 0 0 0 20.21 0a6.023 6.023 0 0 0-5.99 6.056 5.738 5.738 0 0 0 .16 1.382A16.923 16.923 0 0 1 2.02 1.106a6.143 6.143 0 0 0-.81 3.044 6.079 6.079 0 0 0 2.67 5.044 5.807 5.807 0 0 1-2.72-.757v.076a6.044 6.044 0 0 0 4.81 5.937 5.973 5.973 0 0 1-1.58.212 5.7 5.7 0 0 1-1.13-.112 6.023 6.023 0 0 0 5.61 4.206 11.955 11.955 0 0 1-7.45 2.594 12.119 12.119 0 0 1-1.43-.087A16.619 16.619 0 0 0 9.16 24c11.04 0 17.07-9.231 17.07-17.238 0-.262 0-.525-.02-.781a12.176 12.176 0 0 0 2.99-3.137"/></svg><svg width="21" height="21" viewBox="0 0 21 21" id="wine--user_menu" x="39" y="90" xmlns="http://www.w3.org/2000/svg"><defs><style>.qcls-1{fill:#e43fa0;fill-rule:evenodd}</style></defs><path class="qcls-1" d="M10.5 21a10.5 10.5 0 1 1 10.51-10.5A10.519 10.519 0 0 1 10.5 21zm0-19.842a9.344 9.344 0 1 0 9.35 9.344 9.355 9.355 0 0 0-9.35-9.344zM4.37 18.097l-1.05-.464c.32-.726 1.26-1.151 2.36-1.643 1.06-.475 2.38-1.066 2.38-1.767v-.958a3.08 3.08 0 0 1-1.11-2.006 2.353 2.353 0 0 1-.81-1.594 1.772 1.772 0 0 1 .33-1.018 12.277 12.277 0 0 1-.27-2.179c0-2.422 1.69-3.987 4.3-3.987a3.077 3.077 0 0 1 2.17.744c1.18.208 2.13 1.609 2.13 3.243a9.628 9.628 0 0 1-.29 2.338 1.791 1.791 0 0 1 .25.879 1.963 1.963 0 0 1-.79 1.62 3.049 3.049 0 0 1-1.03 1.954v.96c0 .6 1.08 1 2.13 1.384 1.18.44 2.42.9 2.8 1.892l-1.08.412c-.2-.509-1.22-.888-2.13-1.223-1.35-.5-2.87-1.067-2.87-2.465V12.66l.26-.169a1.881 1.881 0 0 0 .78-1.527v-.39l.36-.145a.733.733 0 0 0 .25-1.139l-.21-.247.1-.314a8.176 8.176 0 0 0 .32-2.26c0-1.088-.63-2.117-1.29-2.117h-.33l-.17-.286a1.737 1.737 0 0 0-1.36-.431c-1.97 0-3.15 1.059-3.15 2.834a13.683 13.683 0 0 0 .3 2.2l.07.313-.23.223a.753.753 0 0 0-.2.459 1.476 1.476 0 0 0 .57.859l.23.173v.285a1.913 1.913 0 0 0 .86 1.508l.26.17v1.558c0 1.448-1.62 2.177-3.06 2.819a4.854 4.854 0 0 0-1.78 1.055"/></svg><svg width="30" height="21" viewBox="0 0 30 21" id="wine--youtube" x="70" y="60" xmlns="http://www.w3.org/2000/svg"><defs><style>.rcls-1{fill:#e43fa0;fill-rule:evenodd}</style></defs><path class="rcls-1" d="M29.7 4.552a6.472 6.472 0 0 0-1.19-2.978A4.286 4.286 0 0 0 25.5.304c-4.2-.3-10.49-.3-10.49-.3h-.02s-6.29 0-10.49.3a4.286 4.286 0 0 0-3.01 1.27A6.472 6.472 0 0 0 .3 4.552 45.378 45.378 0 0 0 0 9.407v2.176a45.353 45.353 0 0 0 .3 4.855 6.468 6.468 0 0 0 1.19 2.978 5.09 5.09 0 0 0 3.31 1.283c2.4.23 10.2.3 10.2.3s6.3-.01 10.5-.313a4.292 4.292 0 0 0 3.01-1.271 6.468 6.468 0 0 0 1.19-2.978 45.353 45.353 0 0 0 .3-4.855V9.407a45.378 45.378 0 0 0-.3-4.855zm-17.8 9.889V6.012l8.11 4.23-8.11 4.2z"/></svg></svg>